<svg width="512" height="512" viewBox="0 0 512 512" fill="none" xmlns="http://www.w3.org/2000/svg">
  <rect width="512" height="512" rx="120" fill="#132A1A"/>
  <rect x="86" y="310" width="340" height="56" rx="28" fill="#D88A34"/>
  <rect x="110" y="332" width="292" height="34" rx="17" fill="#F5E9C9"/>
  <path d="M104 240C139.333 210 178.333 191 221 183V256H104V240Z" fill="#2F7F52"/>
  <path d="M221 183C233 180.333 244.667 179 256 179C267.333 179 279 180.333 291 183V256H221V183Z" fill="#88C062"/>
  <path d="M291 183C333.667 191 372.667 210 408 240V256H291V183Z" fill="#4E7BB9"/>
  <path d="M168 120C188 128.667 204 143 216 163C191.333 160.333 171.333 167 156 183C155.333 157.667 159.333 136.667 168 120Z" fill="#88C062"/>
  <path d="M257 104C281 119.333 296 141.333 302 170C277.333 160 251.333 160 224 170C230 141.333 241 119.333 257 104Z" fill="#F0C24B"/>
  <path d="M352 124C359.333 141.333 362.667 160.333 362 181C344.667 166.333 324.667 161.333 302 166C313.333 145.333 330 131.333 352 124Z" fill="#7EB7C7"/>
  <path d="M138 405H374" stroke="#2F7F52" stroke-width="24" stroke-linecap="round"/>
  <path d="M118 440H394" stroke="#6E4A2C" stroke-width="18" stroke-linecap="round"/>
</svg>
